IKResults																		
version=1																		
nRows=29																		
nColumns=19																		
inDegrees=yes																		
																		
"Units are S.I. units (second, meters, Newtons, ...)"																		
"If the header above contains a line with 'inDegrees', this indicates whether rotational values are in degrees (yes) or radians (no)."																		
																		
endheader																		
time	pelvis_tilt	pelvis_list	pelvis_rotation	pelvis_tx	pelvis_ty	pelvis_tz	hip_flexion_r	hip_adduction_r	hip_rotation_r	knee_angle_r	knee_angle_r_beta	ankle_angle_r	hip_flexion_l	hip_adduction_l	hip_rotation_l	knee_angle_l	knee_angle_l_beta	ankle_angle_l
4.63	-1.47103919	5.41529134	-179.5438484	0	0.86151346	-0.44055503	5.07621906	4.84713739	-8.9432128	19.20195787	0.33513739	11.59248543	25.49955528	-12.90143415	-7.34175443	9.41290106	0.16428612	-2.42152977
4.64	-1.45610207	5.76846753	-179.5299881	0	0.86054746	-0.44058551	4.81126532	5.23108304	-9.11710774	19.36196452	0.33793003	11.86358552	26.16395376	-13.14062984	-7.54473477	8.14213908	0.14210714	-2.10564262
4.65	-1.48251728	5.54165731	-179.5586817	0	0.85982955	-0.44031337	4.55064636	4.9854582	-8.90860784	19.71112199	0.34402398	12.56202531	26.35197142	-12.42000586	-7.51721996	6.1427004	0.10721035	-2.36774833
4.66	-1.44003113	5.85418036	-179.563283	0	0.85874991	-0.44027256	4.31793694	5.32559178	-8.99135926	19.89752324	0.34727729	12.8621799	26.96650808	-12.54588449	-7.6111839	4.78198408	0.08346137	-2.09159126
4.67	-1.41347734	5.70485465	-179.5737452	0	0.85782334	-0.43986633	4.12845587	5.12881553	-8.9510679	20.26229141	0.3536437	13.51617264	27.22751788	-11.82861533	-7.29869762	2.85258016	0.04978692	-2.34346094
4.68	-1.30562781	5.89220398	-179.5843093	0	0.85658357	-0.43970839	3.97397597	5.336462	-8.8926721	20.48796086	0.35758237	13.96493643	27.87206896	-11.72199364	-7.17546038	1.52381137	0.02659553	-2.13885184
4.69	-1.30482519	6.19883051	-179.5739182	0	0.85532141	-0.43957256	3.70522229	5.65072745	-9.01880147	20.68304094	0.36098716	14.25398428	28.6323372	-11.90273067	-7.24020558	0.69954652	0.01220939	-1.84377957
4.7	-0.77359917	6.55955788	-179.587764	0	0.85321641	-0.43956273	4.13091807	6.04712541	-8.9099645	21.13187244	0.36882075	14.99249143	30.24230108	-12.19618424	-7.24054987	0.42720976	0.00745622	-1.11781034
4.71	-0.69879444	7.00108377	-179.5901883	0	0.85163612	-0.43957702	3.96962352	6.5219195	-8.97907464	21.38329598	0.37320892	15.37037252	31.36857628	-12.75429317	-7.59321098	0.2915064	0.00508775	-0.51847826
4.72	-0.12224954	7.39492762	-179.6033562	0	0.84945677	-0.43964075	4.3833554	6.9607007	-8.91657395	21.71603428	0.3790163	15.96038665	33.05214971	-13.13036092	-7.63337636	0.22925286	0.00400122	0.23810303
4.73	0.14145012	7.80386021	-179.6123583	0	0.84766095	-0.43965923	4.39605098	7.4207128	-8.8474631	21.94554665	0.38302205	16.42328349	34.33975846	-13.58843861	-7.82919435	0.18900568	0.00329877	0.91093053
4.74	0.21179702	8.20701846	-179.6184835	0	0.84611347	-0.43970438	4.15218134	7.8503135	-8.94163546	22.09511635	0.38563253	16.81067436	35.35045261	-14.11320018	-8.1823431	0.16236209	0.00283375	1.47321262
4.75	0.58706953	8.58380848	-179.6341709	0	0.84421758	-0.43972666	4.2455068	8.27448835	-8.867896	22.28353503	0.38892106	17.29162541	36.64844478	-14.48594639	-8.27097599	0.14516717	0.00253365	2.15091602
4.76	0.603031	8.94097888	-179.6443307	0	0.84276605	-0.43977194	3.90664544	8.65570816	-8.92939425	22.40152276	0.39098033	17.63843846	37.46974371	-14.95336888	-8.60345589	0.13162655	0.00229732	2.63524748
4.77	0.75974943	9.29101665	-179.6579884	0	0.84117597	-0.43977272	3.64791284	9.05895848	-8.82912642	22.41538139	0.39122221	18.08538926	38.37554964	-15.32686223	-8.74268944	0.12376347	0.00216008	3.25682254
4.78	0.84965586	9.62066618	-179.6703674	0	0.83967333	-0.43976093	3.32108896	9.41979174	-8.80466436	22.44759755	0.39178449	18.44430195	39.1332478	-15.67301762	-8.86515838	0.11684661	0.00203936	3.7754593
4.79	0.96860245	9.92313295	-179.6842244	0	0.83814891	-0.4397292	2.96924946	9.76132971	-8.72159393	22.395575	0.39087652	18.83447933	39.84060238	-15.92416329	-8.81836195	0.11222487	0.00195869	4.31425207
4.8	0.93617743	10.00671375	-179.6807063	0	0.83683539	-0.43948183	2.46722957	9.79457428	-8.89616329	22.39094811	0.39079577	19.08299555	40.26051671	-15.89539481	-8.73057668	0.10460338	0.00182567	4.37212289
4.81	1.08583848	10.5067128	-179.7048983	0	0.83524646	-0.43950968	2.04092422	10.41123563	-8.53817499	22.16602494	0.38687012	19.48131421	40.88453667	-16.29712611	-8.45398974	0.1063227	0.00185568	5.29827219
4.82	1.09697435	10.58988665	-179.7134722	0	0.83387871	-0.43925511	1.55068534	10.43920542	-8.71314996	22.13739482	0.38637043	19.76592229	41.19782402	-16.26065842	-8.31421993	0.10260084	0.00179072	5.34284837
4.83	1.10936882	11.0096677	-179.7220008	0	0.8324444	-0.43910712	0.9111584	10.93891256	-8.45101169	21.82366384	0.38089479	20.12647019	41.50403004	-16.44409253	-7.70621982	0.10349637	0.00180635	5.9544838
4.84	1.17718136	11.06427941	-179.7344138	0	0.83099735	-0.43880386	0.45067546	10.93873457	-8.59936689	21.78456208	0.38021233	20.43321685	41.71708671	-16.37243986	-7.54778858	0.10171473	0.00177526	5.96256166
4.85	1.05773778	11.38067091	-179.7396494	0	0.8298737	-0.43852985	-0.53167964	11.37077203	-8.06640578	21.10073997	0.36827739	20.49660058	41.68950375	-16.35898397	-6.69242815	0.10322816	0.00180167	6.32311032
4.86	1.08075283	11.43972308	-179.7461757	0	0.82850584	-0.43807937	-1.12767101	11.39032604	-8.09746855	20.90991153	0.3649468	20.75175444	41.71691589	-16.14254564	-6.12127674	0.10291201	0.00179615	6.2014609
4.87	0.94685891	11.61898149	-179.752026	0	0.82743442	-0.43771637	-2.11140246	11.63955941	-7.67866404	20.30590257	0.35440486	20.86547433	41.51466058	-16.1042257	-5.56620226	0.10443224	0.00182269	6.10898818
4.88	1.00152946	11.63822699	-179.7567867	0	0.82615729	-0.43713878	-2.73174649	11.6113061	-7.71985488	20.01992218	0.34941356	21.06848336	41.43962372	-15.81672216	-4.91715143	0.10531904	0.00183816	5.79080176
4.89	0.86681741	11.73460315	-179.7635064	0	0.82523668	-0.43667563	-3.74610594	11.7630719	-7.28189199	19.37757473	0.33820248	21.12159364	41.11290611	-15.74230437	-4.45946313	0.10824446	0.00188922	5.28148709
4.9	0.95431285	11.63090618	-179.7687862	0	0.8240857	-0.43596305	-4.33678558	11.59686132	-7.30428127	19.09912271	0.33334258	21.2608719	40.9474584	-15.35883142	-3.89458466	0.11096907	0.00193678	4.79907358
4.91	0.71473196	11.64828324	-179.772549	0	0.82352549	-0.43546031	-5.51540817	11.6694784	-6.77436927	18.37379201	0.32068317	21.2395603	40.41282799	-15.35497043	-3.76465831	0.11542712	0.00201458	3.84811636
